<?xml version="1.0" standalone="no"?>
<!DOCTYPE svg PUBLIC "-//W3C//DTD SVG 20010904//EN"
 "http://www.w3.org/TR/2001/REC-SVG-20010904/DTD/svg10.dtd">
<svg version="1.0" xmlns="http://www.w3.org/2000/svg"
 width="1024.000000pt" height="1024.000000pt" viewBox="0 0 1024.000000 1024.000000"
 preserveAspectRatio="xMidYMid meet">

<g transform="translate(0.000000,1024.000000) scale(0.100000,-0.100000)"
fill="#d32030" stroke="none">
<path d="M2938 8039 c-17 -9 -18 -122 -18 -2141 l0 -2131 32 44 c174 242 594
666 971 977 l87 73 0 1105 0 1105 1118 -4 c1210 -4 1159 -1 1332 -58 260 -86
464 -276 566 -527 122 -303 84 -666 -97 -934 -123 -181 -328 -358 -514 -444
-61 -28 -81 -44 -124 -99 -214 -272 -306 -516 -328 -869 -3 -63 -2 -106 3
-106 31 0 314 55 392 76 442 120 767 298 1042 573 303 303 488 664 559 1091
94 565 -59 1157 -410 1586 -241 296 -614 528 -999 623 -281 69 -162 65 -1965
68 -1119 2 -1635 0 -1647 -8z"/>
<path d="M6750 5749 c-52 -10 -168 -30 -257 -44 -398 -64 -843 -191 -1207
-347 -512 -219 -974 -504 -1364 -843 -139 -120 -421 -409 -543 -555 -299 -359
-560 -775 -759 -1213 -65 -146 -220 -519 -220 -533 0 -2 134 -4 299 -4 l298 0
17 63 c149 544 372 1045 661 1482 362 546 829 987 1430 1350 211 127 598 318
810 398 188 72 431 151 527 172 35 7 96 20 136 29 40 9 79 16 85 16 13 -1
-213 -88 -398 -155 -110 -39 -355 -135 -465 -182 l-45 -20 165 5 c163 5 165 5
215 36 l50 31 -90 5 c-73 4 -86 7 -70 16 24 14 137 34 188 34 26 0 91 28 229
98 174 88 323 148 417 167 52 11 30 -12 -44 -45 -260 -117 -619 -355 -803
-532 -319 -309 -485 -571 -591 -934 -81 -275 -85 -680 -10 -970 89 -351 257
-694 508 -1041 16 -22 16 -22 369 -23 l352 0 -83 103 c-435 535 -674 974 -757
1392 -47 234 -37 526 26 744 129 443 480 872 1037 1266 31 22 57 43 57 46 0
12 -77 6 -170 -12z"/>
<path d="M5563 5267 c-46 -23 -83 -44 -83 -47 0 -3 93 -4 206 -3 l205 2 44 38
c24 21 44 41 44 45 1 4 -74 7 -166 7 l-168 0 -82 -42z"/>
<path d="M5205 5065 l-89 -54 269 -3 c149 -2 275 -2 281 0 6 2 32 28 58 58
l47 54 -238 0 -238 -1 -90 -54z"/>
<path d="M4869 4817 c-31 -23 -73 -57 -95 -74 l-39 -33 357 0 356 0 44 63 c24
34 47 68 51 75 7 9 -57 12 -305 12 l-313 0 -56 -43z"/>
<path d="M4444 4433 c-43 -49 -91 -103 -108 -120 l-30 -33 460 0 459 0 43 108
c23 59 45 113 48 120 5 9 -77 12 -394 12 l-400 0 -78 -87z"/>
<path d="M4092 3993 c-27 -38 -81 -116 -121 -175 l-71 -108 623 0 624 0 6 104
c4 58 10 136 13 175 l7 71 -516 0 -515 0 -50 -67z"/>
<path d="M3698 3303 c-60 -116 -158 -326 -158 -338 0 -3 383 -5 851 -5 807 0
851 1 844 18 -25 60 -85 358 -85 423 l0 29 -693 0 -693 0 -66 -127z"/>
<path d="M3414 2635 c-6 -16 -33 -97 -59 -180 -25 -82 -53 -170 -61 -194 -8
-25 -12 -46 -11 -48 2 -2 524 -2 1160 -1 l1155 3 -54 90 c-31 50 -85 150 -122
222 l-67 133 -810 0 c-445 0 -879 2 -964 3 l-154 2 -13 -30z"/>
</g>
</svg>
