<?xml version="1.0" standalone="no"?>
<!DOCTYPE svg PUBLIC "-//W3C//DTD SVG 20010904//EN"
 "http://www.w3.org/TR/2001/REC-SVG-20010904/DTD/svg10.dtd">
<svg version="1.0" xmlns="http://www.w3.org/2000/svg"
 width="1483.000000pt" height="362.000000pt" viewBox="0 0 1483.000000 362.000000"
 preserveAspectRatio="xMidYMid meet">

<g transform="translate(0.000000,362.000000) scale(0.100000,-0.100000)"
fill="#d32030" stroke="none">
<path d="M417 3393 c-9 -8 -9 -2346 -1 -2367 5 -12 24 7 71 71 119 163 325
369 490 491 l63 47 0 603 0 602 293 2 c425 4 490 4 722 -4 236 -8 275 -15 405
-79 108 -53 222 -163 265 -254 58 -125 57 -286 -4 -409 -40 -81 -134 -183
-207 -225 -108 -61 -203 -196 -259 -366 -26 -80 -48 -216 -38 -242 7 -18 71
-16 178 6 219 47 390 137 548 290 129 125 219 276 274 461 26 89 28 107 28
275 0 143 -4 195 -19 255 -37 149 -101 278 -207 422 -123 166 -325 306 -537
372 -179 56 -179 56 -1157 56 -496 0 -905 -3 -908 -7z"/>
<path d="M5962 1768 l3 -1013 95 -3 c52 -2 123 0 158 3 l62 7 0 1009 0 1009
-160 0 -160 0 2 -1012z"/>
<path d="M12885 2768 c-3 -7 -4 -461 -3 -1008 l3 -995 156 -3 c143 -2 157 -1
160 15 2 10 3 465 1 1011 l-3 992 -155 0 c-114 0 -156 -3 -159 -12z"/>
<path d="M8349 2733 c-45 -23 -59 -37 -81 -82 -44 -86 -33 -169 31 -232 89
-89 247 -65 305 46 51 98 10 225 -87 271 -67 31 -101 30 -168 -3z"/>
<path d="M12242 2733 c-118 -58 -137 -238 -33 -326 123 -103 311 -11 311 152
0 119 -73 191 -192 191 -29 0 -68 -8 -86 -17z"/>
<path d="M4865 2150 c-107 -19 -213 -76 -290 -156 l-44 -45 -3 88 -3 88 -162
3 -163 2 0 -945 0 -945 165 0 165 0 0 347 0 347 48 -46 c114 -112 226 -153
407 -152 102 1 132 5 200 27 44 15 103 40 132 57 128 74 234 213 289 380 25
77 28 99 28 235 1 128 -2 162 -22 229 -85 295 -307 477 -598 490 -55 3 -121 1
-149 -4z m175 -316 c57 -17 138 -78 180 -135 89 -123 103 -314 34 -452 -116
-228 -413 -285 -599 -116 -169 156 -173 454 -8 616 104 101 242 132 393 87z"/>
<path d="M7175 2149 c-209 -31 -418 -172 -507 -344 -60 -117 -79 -186 -85
-321 -7 -141 5 -222 46 -322 118 -286 403 -452 735 -428 203 14 339 71 474
198 l43 40 -103 98 -103 97 -52 -42 c-156 -127 -357 -149 -525 -58 -87 47
-160 145 -174 232 l-7 41 519 2 519 3 -1 125 c-2 218 -59 366 -194 501 -150
151 -350 212 -585 178z m271 -306 c94 -49 160 -134 178 -230 l6 -33 -356 0
-356 0 6 32 c17 87 87 177 168 219 77 40 119 49 208 46 72 -3 95 -8 146 -34z"/>
<path d="M11039 2144 c-140 -22 -327 -101 -382 -162 -18 -19 -17 -22 40 -104
32 -46 65 -94 74 -107 l17 -22 62 40 c83 54 153 79 255 90 138 16 248 -9 313
-72 51 -49 72 -97 72 -166 l0 -61 -47 8 c-27 4 -138 7 -248 6 -172 0 -211 -3
-277 -22 -165 -45 -265 -117 -320 -230 -32 -64 -33 -72 -33 -182 0 -108 2
-119 31 -180 51 -107 134 -176 264 -221 91 -31 295 -32 386 -2 69 23 153 75
203 127 19 20 39 36 43 36 4 0 8 -36 8 -80 l0 -80 155 0 155 0 0 443 c0 243
-5 474 -10 512 -18 122 -61 214 -136 288 -127 127 -370 181 -625 141z m439
-789 c17 -6 15 -102 -4 -158 -20 -59 -93 -141 -153 -172 -148 -75 -356 -50
-419 49 -31 50 -35 133 -9 183 32 60 132 99 272 106 63 3 296 -3 313 -8z"/>
<path d="M13915 2146 c-256 -50 -395 -198 -395 -422 0 -126 56 -232 155 -289
63 -37 186 -80 346 -120 215 -54 263 -86 263 -175 0 -42 -5 -55 -30 -81 -49
-51 -86 -63 -209 -63 -136 -1 -210 21 -328 100 -44 30 -84 53 -88 52 -14 -5
-159 -192 -159 -204 0 -24 141 -119 225 -152 148 -58 395 -75 549 -38 149 36
269 118 318 218 75 154 55 331 -50 441 -71 74 -160 113 -407 177 -214 55 -260
81 -271 151 -25 170 304 208 520 60 24 -17 47 -31 49 -31 2 0 39 48 82 107
l79 106 -30 24 c-52 43 -206 111 -289 128 -109 23 -245 27 -330 11z"/>
<path d="M10155 2136 c-95 -30 -175 -92 -234 -180 l-26 -40 -5 105 -5 104
-155 0 -155 0 -3 -683 -2 -683 157 3 158 3 5 395 c6 427 6 425 65 527 32 53
123 119 194 140 52 15 93 14 187 -3 l32 -6 11 69 c7 37 21 103 32 146 11 43
17 82 14 87 -17 27 -199 38 -270 16z"/>
<path d="M2475 2104 c-451 -101 -798 -242 -1119 -455 -361 -239 -654 -548
-884 -934 -66 -111 -272 -516 -272 -535 0 -6 64 -10 179 -10 l179 0 26 88
c147 482 416 932 727 1214 288 261 692 479 1104 596 77 22 156 44 175 50 65
19 -4 10 -115 -14z"/>
<path d="M8267 2123 c-4 -3 -7 -309 -7 -678 0 -573 2 -674 14 -684 10 -9 59
-11 163 -9 l148 3 3 688 2 687 -158 0 c-87 0 -162 -3 -165 -7z"/>
<path d="M12177 2123 c-4 -3 -7 -312 -7 -685 l0 -678 43 -1 c155 -2 272 3 278
13 8 13 11 1236 3 1306 l-6 52 -152 0 c-84 0 -156 -3 -159 -7z"/>
<path d="M2540 2041 c-265 -114 -480 -317 -590 -555 -122 -263 -115 -524 24
-894 42 -113 135 -307 186 -389 l20 -33 190 0 c104 0 190 2 190 5 0 3 -33 47
-74 98 -244 303 -384 597 -416 873 -40 346 161 708 486 872 39 20 75 52 58 52
-5 0 -38 -13 -74 -29z"/>
<path d="M2405 2030 l-20 -9 20 0 c11 0 27 4 35 9 13 9 13 10 0 9 -8 0 -24 -4
-35 -9z"/>
<path d="M2248 1970 c-65 -23 -69 -30 -16 -30 28 0 50 6 58 15 7 8 21 15 31
15 10 0 21 5 24 10 9 15 -43 10 -97 -10z"/>
<path d="M2013 1871 c-109 -49 -109 -50 3 -51 98 0 102 1 145 32 48 35 48 35
-33 41 -47 3 -69 -1 -115 -22z"/>
<path d="M1754 1724 c-16 -8 -40 -23 -54 -34 l-25 -20 153 0 153 0 24 27 c16
20 20 30 12 36 -21 13 -232 6 -263 -9z"/>
<path d="M1517 1540 l-42 -39 197 -1 197 0 16 30 c8 16 15 34 15 40 0 6 -58
10 -170 10 l-171 0 -42 -40z"/>
<path d="M1398 1402 c-16 -2 -40 -18 -59 -40 l-33 -37 230 -5 c126 -3 236 -4
245 -2 21 4 43 71 26 77 -15 5 -372 11 -409 7z"/>
<path d="M1161 1147 c-22 -30 -41 -57 -41 -60 0 -4 141 -7 314 -7 351 0 326
-6 326 76 l0 44 -279 0 -279 0 -41 -53z"/>
<path d="M1008 887 c-24 -25 -81 -155 -75 -171 6 -14 51 -16 427 -16 358 0
421 2 426 14 3 8 -3 52 -13 98 l-19 83 -366 3 c-297 2 -369 0 -380 -11z"/>
<path d="M814 449 c-15 -25 -72 -232 -67 -245 4 -12 100 -14 609 -14 l604 0 0
23 c-1 12 -23 72 -49 132 l-48 110 -521 3 c-378 1 -523 -1 -528 -9z"/>
</g>
</svg>
